HIERARCHY
ROOT pelvis
{
	OFFSET 0.003123 -0.351407 0.012037
	CHANNELS 6 Xposition Yposition Zposition Zrotation Yrotation Xrotation 
	JOINT left_hip
	{
		OFFSET 0.058189 -0.092763 -0.026001
		CHANNELS 3 Zrotation Yrotation Xrotation
		JOINT left_knee
		{
			OFFSET 0.054695 -0.378753 -0.009396
			CHANNELS 3 Zrotation Yrotation Xrotation
			JOINT left_ankle
			{
				OFFSET -0.043453 -0.403059 -0.031876
				CHANNELS 3 Zrotation Yrotation Xrotation
				JOINT left_foot
				{
					OFFSET 0.047257 -0.057997 0.118216
					CHANNELS 3 Zrotation Yrotation Xrotation
					End Site
					{
						OFFSET 0.000000 0.000000 0.000000
					}
				}
			}
		}
	}
	JOINT right_hip
	{
		OFFSET -0.063267 -0.103908 -0.021250
		CHANNELS 3 Zrotation Yrotation Xrotation
		JOINT right_knee
		{
			OFFSET -0.044210 -0.362380 -0.016824
			CHANNELS 3 Zrotation Yrotation Xrotation
			JOINT right_ankle
			{
				OFFSET 0.015417 -0.410728 -0.020192
				CHANNELS 3 Zrotation Yrotation Xrotation
				JOINT right_foot
				{
					OFFSET -0.038812 -0.058328 0.119049
					CHANNELS 3 Zrotation Yrotation Xrotation
					End Site
					{
						OFFSET 0.000000 0.000000 0.000000
					}
				}
			}
		}
	}
	JOINT spine_1
	{
		OFFSET -0.002763 0.109891 -0.027618
		CHANNELS 3 Zrotation Yrotation Xrotation
		JOINT spine_2
		{
			OFFSET 0.009448 0.131853 -0.005940
			CHANNELS 3 Zrotation Yrotation Xrotation
			JOINT spine_3
			{
				OFFSET -0.011330 0.052235 0.028447
				CHANNELS 3 Zrotation Yrotation Xrotation
				JOINT neck
				{
					OFFSET -0.012164 0.165167 -0.031615
					CHANNELS 3 Zrotation Yrotation Xrotation
					JOINT head
					{
						OFFSET 0.024783 0.160452 0.020737
						CHANNELS 3 Zrotation Yrotation Xrotation
						End Site
						{
							OFFSET 0.000000 0.000000 0.000000
						}
					}
				}
				JOINT left_collar
				{
					OFFSET 0.046364 0.084944 -0.007220
					CHANNELS 3 Zrotation Yrotation Xrotation
					JOINT left_shoulder
					{
						OFFSET 0.119239 0.057728 -0.015461
						CHANNELS 3 Zrotation Yrotation Xrotation
						JOINT left_elbow
						{
							OFFSET 0.254123 -0.072151 -0.042459
							CHANNELS 3 Zrotation Yrotation Xrotation
							JOINT left_wrist
							{
								OFFSET 0.251987 0.023221 -0.002472
								CHANNELS 3 Zrotation Yrotation Xrotation
								JOINT left_index_1
								{
									OFFSET 0.101902 -0.008688 0.019351
									CHANNELS 3 Zrotation Yrotation Xrotation
									JOINT left_index_2
									{
										OFFSET 0.030149 -0.011154 0.001151
										CHANNELS 3 Zrotation Yrotation Xrotation
										JOINT left_index_3
										{
											OFFSET 0.006504 -0.021577 -0.002433
											CHANNELS 3 Zrotation Yrotation Xrotation
											End Site
											{
												OFFSET 0.000000 0.000000 0.000000
											}
										}
									}
								}
								JOINT left_middle_1
								{
									OFFSET 0.109398 -0.006328 -0.003981
									CHANNELS 3 Zrotation Yrotation Xrotation
									JOINT left_middle_2
									{
										OFFSET 0.026472 -0.015218 -0.004641
										CHANNELS 3 Zrotation Yrotation Xrotation
										JOINT left_middle_3
										{
											OFFSET 0.005022 -0.023347 -0.001911
											CHANNELS 3 Zrotation Yrotation Xrotation
											End Site
											{
												OFFSET 0.000000 0.000000 0.000000
											}
										}
									}
								}
								JOINT left_pinky_1
								{
									OFFSET 0.084047 -0.014539 -0.043750
									CHANNELS 3 Zrotation Yrotation Xrotation
									JOINT left_pinky_2
									{
										OFFSET 0.012124 -0.014448 -0.005375
										CHANNELS 3 Zrotation Yrotation Xrotation
										JOINT left_pinky_3
										{
											OFFSET 0.003798 -0.018853 0.000167
											CHANNELS 3 Zrotation Yrotation Xrotation
											End Site
											{
												OFFSET 0.000000 0.000000 0.000000
											}
										}
									}
								}
								JOINT left_ring_1
								{
									OFFSET 0.097444 -0.009268 -0.027345
									CHANNELS 3 Zrotation Yrotation Xrotation
									JOINT left_ring_2
									{
										OFFSET 0.023561 -0.016057 -0.001895
										CHANNELS 3 Zrotation Yrotation Xrotation
										JOINT left_ring_3
										{
											OFFSET 0.004257 -0.023548 0.000814
											CHANNELS 3 Zrotation Yrotation Xrotation
											End Site
											{
												OFFSET 0.000000 0.000000 0.000000
											}
										}
									}
								}
								JOINT left_thumb_1
								{
									OFFSET 0.040636 -0.017977 0.025611
									CHANNELS 3 Zrotation Yrotation Xrotation
									JOINT left_thumb_2
									{
										OFFSET 0.021637 -0.017639 0.011623
										CHANNELS 3 Zrotation Yrotation Xrotation
										JOINT left_thumb_3
										{
											OFFSET 0.024002 -0.008356 0.006548
											CHANNELS 3 Zrotation Yrotation Xrotation
											End Site
											{
												OFFSET 0.000000 0.000000 0.000000
											}
										}
									}
								}
							}
						}
					}
				}
				JOINT right_collar
				{
					OFFSET -0.047695 0.084339 -0.013400
					CHANNELS 3 Zrotation Yrotation Xrotation
					JOINT right_shoulder
					{
						OFFSET -0.102578 0.053524 -0.012669
						CHANNELS 3 Zrotation Yrotation Xrotation
						JOINT right_elbow
						{
							OFFSET -0.271150 -0.036492 -0.026467
							CHANNELS 3 Zrotation Yrotation Xrotation
							JOINT right_wrist
							{
								OFFSET -0.249267 -0.004533 -0.015325
								CHANNELS 3 Zrotation Yrotation Xrotation
								JOINT right_index_1
								{
									OFFSET -0.099881 -0.011783 0.019600
									CHANNELS 3 Zrotation Yrotation Xrotation
									JOINT right_index_2
									{
										OFFSET -0.030148 -0.011154 0.001151
										CHANNELS 3 Zrotation Yrotation Xrotation
										JOINT right_index_3
										{
											OFFSET -0.006505 -0.021577 -0.002432
											CHANNELS 3 Zrotation Yrotation Xrotation
											End Site
											{
												OFFSET 0.000000 0.000000 0.000000
											}
										}
									}
								}
								JOINT right_middle_1
								{
									OFFSET -0.107376 -0.009422 -0.003734
									CHANNELS 3 Zrotation Yrotation Xrotation
									JOINT right_middle_2
									{
										OFFSET -0.026472 -0.015218 -0.004641
										CHANNELS 3 Zrotation Yrotation Xrotation
										JOINT right_middle_3
										{
											OFFSET -0.005022 -0.023347 -0.001911
											CHANNELS 3 Zrotation Yrotation Xrotation
											End Site
											{
												OFFSET 0.000000 0.000000 0.000000
											}
										}
									}
								}
								JOINT right_pinky_1
								{
									OFFSET -0.082027 -0.017634 -0.043503
									CHANNELS 3 Zrotation Yrotation Xrotation
									JOINT right_pinky_2
									{
										OFFSET -0.012123 -0.014448 -0.005374
										CHANNELS 3 Zrotation Yrotation Xrotation
										JOINT right_pinky_3
										{
											OFFSET -0.003798 -0.018852 0.000167
											CHANNELS 3 Zrotation Yrotation Xrotation
											End Site
											{
												OFFSET 0.000000 0.000000 0.000000
											}
										}
									}
								}
								JOINT right_ring_1
								{
									OFFSET -0.095423 -0.012362 -0.027099
									CHANNELS 3 Zrotation Yrotation Xrotation
									JOINT right_ring_2
									{
										OFFSET -0.023561 -0.016057 -0.001895
										CHANNELS 3 Zrotation Yrotation Xrotation
										JOINT right_ring_3
										{
											OFFSET -0.004257 -0.023548 0.000816
											CHANNELS 3 Zrotation Yrotation Xrotation
											End Site
											{
												OFFSET 0.000000 0.000000 0.000000
											}
										}
									}
								}
								JOINT right_thumb_1
								{
									OFFSET -0.038613 -0.021074 0.025861
									CHANNELS 3 Zrotation Yrotation Xrotation
									JOINT right_thumb_2
									{
										OFFSET -0.021636 -0.017639 0.011623
										CHANNELS 3 Zrotation Yrotation Xrotation
										JOINT right_thumb_3
										{
											OFFSET -0.024004 -0.008353 0.006547
											CHANNELS 3 Zrotation Yrotation Xrotation
											End Site
											{
												OFFSET 0.000000 0.000000 0.000000
											}
										}
									}
								}
							}
						}
					}
				}
			}
		}
	}
}
MOTION
Frames: 4
Frame Time: 0.050000
0.000027 0.945614 0.000587 13.720210 -6.285573 -9.336701 4.811321 -4.972692 -64.106116 -18.667979 14.630399 104.685723 7.603756 13.346269 -2.601405 0.000000 0.000000 0.000000 -2.278370 1.787156 -16.140903 1.306162 1.279316 29.096403 -19.442205 -33.194889 5.414084 0.000000 0.000000 0.000000 2.022938 -1.957733 29.967811 -8.080117 0.085993 -14.103987 5.357834 2.060610 19.506316 4.745341 0.265530 -5.842040 0.000000 0.000000 0.000000 8.846253 -2.203418 1.548944 -46.850016 -24.343321 -4.596759 -65.551789 -80.456725 68.411262 14.809788 -10.436289 -26.295056 8.395938 4.867029 1.495039 36.223056 -1.158719 -5.635210 0.000000 0.000000 0.000000 6.301511 -5.433427 -2.300405 36.491241 -1.623396 4.036362 0.000000 0.000000 0.000000 25.475747 -9.733110 -10.045511 23.534038 0.615719 11.764772 0.000000 0.000000 0.000000 11.458285 -4.717911 -3.561465 38.552992 1.613947 3.409555 0.000000 0.000000 0.000000 26.913428 6.575193 -10.917302 -20.523620 -4.636714 4.108816 0.000000 0.000000 0.000000 -10.439243 14.339605 6.914722 49.006220 23.000032 0.828377 -69.515849 76.877895 -57.756346 -7.767733 -18.019100 -29.393149 -15.485751 -6.930879 3.754371 -36.286987 0.054569 -7.597151 0.000000 0.000000 0.000000 -8.083642 3.558000 -0.817693 -38.410371 0.509637 1.084901 0.000000 0.000000 0.000000 -19.569188 7.645987 -10.241743 -26.702167 -0.130461 11.317512 0.000000 0.000000 0.000000 -9.217485 2.506648 -1.910984 -40.020469 -1.890320 3.194146 0.000000 0.000000 0.000000 -34.789511 5.096273 -20.913552 19.593293 4.444473 4.017326 0.000000 0.000000 0.000000 
-0.003036 0.944808 0.000587 14.194655 -6.306506 -9.325656 4.568452 -5.111147 -63.995001 -18.158368 14.057008 105.214191 7.253863 12.482182 -2.944781 0.000000 0.000000 0.000000 -2.405873 1.776330 -16.180766 1.373954 1.262460 29.118196 -19.865803 -33.754428 5.092966 0.000000 0.000000 0.000000 1.985854 -1.957644 30.378796 -7.958605 -0.239708 -15.081770 5.508603 2.216178 19.927865 4.575083 0.246030 -5.647432 0.000000 0.000000 0.000000 8.846211 -2.592571 1.707543 -46.702349 -24.406683 -4.650232 -68.125351 -81.343178 71.730497 15.152787 -10.193147 -26.716499 10.266361 3.794120 1.198590 36.277380 -1.135430 -5.712677 0.000000 0.000000 0.000000 7.620719 -6.688314 -2.916202 35.876992 -1.522795 4.535277 0.000000 0.000000 0.000000 25.065126 -9.734795 -10.222111 24.184177 0.491603 11.441273 0.000000 0.000000 0.000000 11.580101 -4.985858 -3.801078 38.479966 1.610495 3.634149 0.000000 0.000000 0.000000 28.530130 6.595097 -11.725812 -20.634584 -5.380329 3.973226 0.000000 0.000000 0.000000 -10.743678 14.349429 6.884717 48.857348 22.758251 0.755841 -73.339735 77.155140 -61.432261 -9.212463 -18.026201 -28.961227 -15.563887 -6.658493 3.595042 -34.872639 -0.015349 -7.931645 0.000000 0.000000 0.000000 -8.539061 3.827189 -0.896451 -37.294599 0.320797 0.886561 0.000000 0.000000 0.000000 -20.318415 7.801107 -10.240240 -25.560014 -0.381810 11.408705 0.000000 0.000000 0.000000 -9.945626 2.493051 -1.847729 -39.406815 -1.969640 3.060549 0.000000 0.000000 0.000000 -34.173780 5.005523 -20.611216 18.320510 4.688802 3.522946 0.000000 0.000000 0.000000 
-0.008924 0.943357 0.000587 15.081232 -6.354561 -9.458084 4.029807 -5.376418 -63.595567 -17.157776 12.778663 105.762959 7.008844 11.826080 -3.258986 0.000000 0.000000 0.000000 -2.668327 1.717753 -15.884522 1.720782 1.147565 28.820469 -20.797028 -34.991412 4.367180 0.000000 0.000000 0.000000 2.398834 -2.040477 30.598521 -7.819473 -0.330804 -15.198031 5.168421 2.266374 20.020587 4.680520 0.243614 -5.706068 0.000000 0.000000 0.000000 9.311537 -2.807894 1.813009 -46.302507 -25.593539 -4.499036 -71.164298 -82.549695 75.838632 16.918532 -10.212444 -28.071338 12.656384 3.650146 1.275742 37.588532 -1.110647 -6.568618 0.000000 0.000000 0.000000 8.838273 -7.127549 -3.012910 36.487529 -1.352149 3.092856 0.000000 0.000000 0.000000 24.561565 -9.883608 -10.904022 24.069635 0.562571 12.190942 0.000000 0.000000 0.000000 11.741027 -5.226756 -4.006789 38.547513 1.627524 3.779012 0.000000 0.000000 0.000000 31.674953 6.530428 -13.330742 -20.260626 -5.233404 3.896523 0.000000 0.000000 0.000000 -11.144007 13.383496 6.481608 48.506835 23.474999 0.935543 -78.106464 77.265829 -65.951277 -10.922199 -17.319462 -28.703069 -15.210603 -6.534264 3.399631 -36.165747 0.033738 -7.409975 0.000000 0.000000 0.000000 -8.577686 4.017640 -0.989419 -36.990035 0.248202 1.293658 0.000000 0.000000 0.000000 -20.211980 7.792199 -9.991405 -26.082210 -0.231534 11.137656 0.000000 0.000000 0.000000 -9.436190 2.798907 -2.093550 -40.726196 -1.760350 3.656561 0.000000 0.000000 0.000000 -33.539803 5.328604 -20.543599 18.319938 4.645992 3.518738 0.000000 0.000000 0.000000 
-0.012458 0.943357 -0.000732 14.566223 -5.731121 -8.834759 3.933199 -5.583461 -61.810099 -16.746147 11.959029 105.825681 6.997115 11.712076 -3.419529 0.000000 0.000000 0.000000 -2.793263 1.727936 -16.252292 1.785819 1.074174 28.927964 -19.144321 -32.924320 3.520318 0.000000 0.000000 0.000000 2.465056 -2.036013 29.602792 -8.083351 -0.114830 -14.926784 5.369919 1.100025 20.181449 4.037034 0.275595 -5.499091 0.000000 0.000000 0.000000 9.364548 -2.232309 1.530462 -42.462232 -26.854921 -4.519628 -94.831937 -84.204357 101.335130 19.233360 -8.431421 -29.301925 15.093130 3.030945 1.231995 37.496957 -1.002382 -6.652880 0.000000 0.000000 0.000000 10.082104 -7.995710 -3.358540 37.327907 -1.315064 2.489649 0.000000 0.000000 0.000000 24.123774 -10.217177 -11.817972 24.707854 0.442070 11.732079 0.000000 0.000000 0.000000 11.539123 -5.177363 -3.941030 39.258096 1.649127 3.287777 0.000000 0.000000 0.000000 34.087682 4.500744 -16.085172 -20.495831 -5.763152 3.896804 0.000000 0.000000 0.000000 -12.232060 13.521402 6.558673 45.028346 24.302216 0.638513 -92.317322 77.110450 -79.769194 -14.021515 -15.649806 -27.182171 -15.524539 -6.413605 3.216941 -36.519021 0.216319 -7.484193 0.000000 0.000000 0.000000 -9.781857 4.323355 -0.934079 -36.789812 0.310961 1.124342 0.000000 0.000000 0.000000 -21.079273 8.176332 -9.947044 -26.384269 -0.166616 11.330819 0.000000 0.000000 0.000000 -9.868183 2.915546 -2.087580 -41.275957 -1.677950 3.406592 0.000000 0.000000 0.000000 -33.892774 4.504450 -20.739268 19.381709 4.791613 3.825577 0.000000 0.000000 0.000000 
